# xmcd
#
# Track frame offsets:
#	150
#	17403
#	32898
#	46033
#	61171
#	76329
#	88551
#	102138
#	120987
#	141584
#	157694
#	178465
#	193505
#	211075
#
# Disc length: 2871 seconds
#
# Revision: 0
# Processed by: cddbd v1.5.1PL2 Copyright (c) Steve Scherf et al.
# Submitted via: dBpowerAMP V4.0
#
DISCID=a90b350e
DTITLE=Catherine Fontaine - Mille vies
DYEAR=1900
DGENRE=
TTITLE0=Idées simples
TTITLE1=L'ombre me tient
TTITLE2=Eté
TTITLE3=Dis moi que tu n'es pas fou
TTITLE4=Mombassa
TTITLE5=Madame, voulez-vous danser ?
TTITLE6=Miroir
TTITLE7=Je suis le temps
TTITLE8=Mille vies
TTITLE9=Crépuscule
TTITLE10=Merlin
TTITLE11=Chanson triste
TTITLE12=Mémoire légère
TTITLE13=Parce que
EXTD=
EXTT0=
EXTT1=
EXTT2=
EXTT3=
EXTT4=
EXTT5=
EXTT6=
EXTT7=
EXTT8=
EXTT9=
EXTT10=
EXTT11=
EXTT12=
EXTT13=
PLAYORDER=
